<svg width="792" height="612" viewBox="0 0 792 612" fill="none" xmlns="http://www.w3.org/2000/svg">
<g id="Frame">
<g id="Layer 2">
<path id="Vector" d="M792 0H0V612H792V0Z" fill="white"/>
</g>
<g id="Layer 1">
<path id="linelast" d="M404.87 366.69L392 353.8L382.17 344.01L376.17 338.01L368.64 330.47L357.03 318.9L327.8 289.62C324.39 286.21 321.19 282.62 317.98 279.01C312.371 272.693 304.935 268.279 296.703 266.381C288.471 264.483 279.853 265.196 272.045 268.42C264.237 271.644 257.626 277.22 253.131 284.372C248.637 291.525 246.481 299.9 246.963 308.334C247.445 316.768 250.542 324.842 255.823 331.436C261.104 338.029 268.307 342.815 276.432 345.128C284.556 347.44 293.2 347.166 301.162 344.342C309.123 341.518 316.008 336.285 320.86 329.37L331.86 318.37L337.77 324.28L350.9 337.41L361.24 347.74L373.82 360.32L383.15 369.62L395.58 382.01L398.43 384.86C398.509 384.942 398.582 385.029 398.65 385.12C406.197 395.199 415.148 404.146 425.23 411.69L425.37 411.8C427.72 413.56 430.1 415.22 432.55 416.8C455.818 431.995 483.305 439.421 511.06 438.01C576 434.81 633.06 377.91 636.34 313.01C640.24 237.01 579.54 174.01 504.4 174.01C480.253 174.008 456.567 180.625 435.918 193.143C415.269 205.661 398.447 223.6 387.28 245.01L400.17 257.9C402.728 252.409 405.71 247.127 409.09 242.1C422.6 221.992 442.126 206.672 464.872 198.335C487.618 189.998 512.418 189.071 535.723 195.685C559.029 202.299 579.644 216.117 594.619 235.16C609.594 254.202 618.161 277.494 619.094 301.702C620.027 325.91 613.278 349.792 599.813 369.931C586.348 390.07 566.857 405.433 544.13 413.821C521.403 422.21 496.605 423.193 473.285 416.632C449.964 410.07 429.318 396.299 414.3 377.29C411.893 374.227 409.316 371.302 406.58 368.53L404.87 366.83V366.69ZM285.26 282.83C288.666 282.478 292.107 282.887 295.336 284.026C298.564 285.166 301.5 287.008 303.93 289.42C305.445 290.87 306.738 292.534 307.77 294.36C309.929 297.973 311.047 302.112 311 306.32C310.941 310.836 309.577 315.238 307.071 318.995C304.566 322.753 301.027 325.705 296.881 327.496C292.735 329.287 288.16 329.84 283.707 329.088C279.254 328.336 275.113 326.312 271.785 323.259C268.457 320.207 266.083 316.256 264.95 311.885C263.817 307.513 263.974 302.907 265.4 298.622C266.827 294.337 269.463 290.557 272.991 287.737C276.518 284.917 280.786 283.178 285.28 282.73L285.26 282.83Z" fill="#51C4C8"/>
<path id="line1" d="M286 376.66C299.435 376.964 312.678 373.432 324.177 366.476C335.675 359.521 344.952 349.431 350.92 337.39C353.838 331.539 355.912 325.303 357.08 318.87L340.9 302.69C340.97 303.8 341.01 304.9 341.01 306.01C341.008 313.086 339.6 320.091 336.868 326.618C334.136 333.145 330.134 339.064 325.095 344.031C320.056 348.999 314.08 352.915 307.515 355.554C300.949 358.192 293.925 359.499 286.85 359.4C259.03 359.01 235.65 336.47 234.29 308.68C233.79 298.604 236.157 288.592 241.116 279.806C246.075 271.02 253.422 263.819 262.307 259.039C271.191 254.258 281.249 252.094 291.313 252.797C301.377 253.5 311.036 257.041 319.17 263.01C321.747 264.914 324.149 267.042 326.35 269.37L339.52 283.37L371.7 315.55L372.7 316.49L386.59 330.35L394.05 337.78L397.05 340.78L410.56 354.26L411.56 355.26C417.14 360.84 422.32 366.8 427.5 372.76C441.534 388.941 460.309 400.289 481.159 405.194C502.009 410.099 523.874 408.311 543.65 400.085C563.427 391.858 580.109 377.611 591.328 359.365C602.548 341.12 607.735 319.804 606.153 298.443C604.57 277.083 596.299 256.763 582.514 240.37C568.729 223.977 550.129 212.343 529.357 207.12C508.584 201.897 486.694 203.35 466.795 211.274C446.895 219.197 429.997 233.188 418.5 251.26C415.168 256.415 412.322 261.868 410 267.55L423.43 281.01C429.248 262.421 441.269 246.391 457.483 235.598C473.698 224.805 493.126 219.903 512.52 221.71C553.44 225.53 586.14 259.22 588.88 300.23C589.988 316.341 586.464 332.432 578.724 346.604C570.983 360.777 559.349 372.439 545.196 380.214C531.042 387.989 514.959 391.552 498.846 390.483C482.733 389.414 467.262 383.757 454.26 374.18C449.695 370.845 445.483 367.052 441.69 362.86C432.13 352.33 422.69 341.68 412.69 331.63L373 292.01L370.62 289.66L369 288.01L342 261.01C339.145 257.52 335.949 254.325 332.46 251.47C330.309 249.697 328.059 248.047 325.72 246.53C314.752 239.478 302.045 235.6 289.009 235.324C275.972 235.049 263.113 238.388 251.857 244.97C240.601 251.553 231.386 261.123 225.234 272.62C219.082 284.117 216.232 297.093 217 310.11C219.09 346.51 249.51 375.85 286 376.66Z" fill="#51C4C8"/>
<path id="line2" d="M185.85 312.75C189.2 364.41 231.95 405.95 283.68 407.89C301.558 408.575 319.302 404.536 335.123 396.182C350.944 387.827 364.284 375.451 373.8 360.3C377.09 355.142 379.893 349.688 382.17 344.01L376.17 338.01L368.63 330.48C366.827 336.493 364.337 342.277 361.21 347.72C353.132 361.98 341.092 373.593 326.549 381.15C312.005 388.707 295.583 391.886 279.27 390.3C238.27 386.3 205.63 352.52 203.07 311.44C201.954 293.754 206.416 276.163 215.825 261.146C225.235 246.13 239.118 234.443 255.52 227.734C271.922 221.024 290.016 219.629 307.253 223.746C324.489 227.862 340 237.283 351.6 250.68C356.06 255.83 360.52 261.02 365.35 265.86L375.65 276.15L388 288.45L390.55 291.01L402.55 303.01L419 319.49L436.45 336.94C442.04 342.54 447.34 348.49 452.76 354.29C463.031 365.276 476.538 372.7 491.318 375.482C506.098 378.264 521.38 376.258 534.942 369.758C548.504 363.257 559.639 352.599 566.728 339.335C573.817 326.071 576.489 310.891 574.358 296.004C572.226 281.116 565.401 267.296 554.876 256.554C544.35 245.812 530.672 238.707 515.83 236.273C500.989 233.839 485.758 236.203 472.353 243.02C458.947 249.837 448.065 260.753 441.29 274.18C438.314 279.983 436.195 286.188 435 292.6L451 308.6C451 307.74 450.93 306.87 450.93 305.97C450.923 298.863 452.336 291.826 455.086 285.272C457.837 278.719 461.869 272.781 466.946 267.807C472.023 262.834 478.042 258.925 484.651 256.31C491.26 253.695 498.324 252.427 505.43 252.58C533.18 253.13 556.37 275.66 557.69 303.38C558.194 313.67 555.709 323.885 550.536 332.794C545.362 341.702 537.721 348.923 528.534 353.585C519.347 358.246 509.007 360.15 498.763 359.065C488.518 357.979 478.806 353.953 470.8 347.47C466.697 344.152 463.102 340.251 460.13 335.89L460.06 335.79L433.76 309.53L420.29 296.06L397.68 273.46L395.02 270.79L381.54 257.28L369 244.77C363.263 237.137 356.476 230.353 348.84 224.62C346.7 223 344.49 221.47 342.21 220.06C325.914 209.592 306.948 204.038 287.58 204.06C273.628 204.076 259.828 206.952 247.032 212.51C234.235 218.069 222.715 226.192 213.181 236.378C203.647 246.564 196.303 258.596 191.602 271.732C186.901 284.868 184.944 298.828 185.85 312.75Z" fill="#51C4C8"/>
<path id="line3" d="M155.81 315.45C160.34 380.52 213.07 433.26 278.15 437.78C300.871 439.401 323.626 435.118 344.203 425.345C364.779 415.573 382.478 400.644 395.58 382.01C399.046 377.13 402.151 372.003 404.87 366.67L392 353.8C389.475 359.294 386.516 364.577 383.15 369.6C369.137 390.709 348.534 406.589 324.552 414.764C300.57 422.939 274.557 422.95 250.568 414.795C226.579 406.64 205.962 390.778 191.932 369.68C177.901 348.583 171.244 323.436 173 298.16C176.7 242.53 220.94 196.94 276.44 191.69C305.218 188.876 333.996 197.05 357 214.57C363.913 219.853 370.215 225.89 375.79 232.57C378.01 235.24 380.27 237.88 382.73 240.34L423.43 281.01L435 292.6L451 308.6L463.38 321.01C465.71 323.33 467.87 325.8 470 328.31C471.1 329.6 472.18 330.9 473.27 332.2C478.609 338.553 485.763 343.121 493.772 345.291C501.781 347.462 510.262 347.131 518.078 344.343C525.894 341.556 532.67 336.445 537.498 329.696C542.326 322.947 544.975 314.883 545.089 306.586C545.202 298.288 542.776 290.155 538.135 283.276C533.494 276.397 526.861 271.102 519.124 268.101C511.388 265.1 502.919 264.537 494.853 266.487C486.788 268.436 479.511 272.806 474 279.01C472.25 281.01 470.51 283.01 468.67 284.89L460.51 293.33L454.39 287.2L441.3 274.18L431 263.85L418.42 251.31L402.66 235.55C400.66 233.55 398.66 231.55 396.72 229.46C392.72 225.17 388.72 220.86 384.72 216.54C380.125 211.539 375.143 206.908 369.82 202.69C346.5 184.001 317.495 173.839 287.61 173.89C211.63 173.89 150.42 238.34 155.81 315.45ZM504.4 282.61C508.521 282.609 512.569 283.695 516.136 285.76C519.703 287.825 522.661 290.794 524.712 294.369C526.763 297.943 527.834 301.996 527.817 306.117C527.8 310.238 526.696 314.281 524.615 317.839C522.534 321.396 519.552 324.341 515.968 326.376C512.385 328.411 508.327 329.465 504.207 329.429C500.086 329.394 496.047 328.271 492.499 326.175C488.951 324.078 486.019 321.083 484 317.49C483.761 317.116 483.557 316.721 483.39 316.31C481.795 313.112 480.977 309.583 481 306.01C481.005 299.806 483.472 293.857 487.859 289.47C492.247 285.082 498.195 282.615 504.4 282.61Z" fill="#51C4C8"/>
</g>
</g>
</svg>
